# xmcd CD database file
#
# Track frame offsets:
#	150
#	23057
#	44635
#	63942
#
# Disc length: 1042 seconds
#
# Revision: 3
# Processed by: cddbd v1.5.2PL0 Copyright (c) Steve Scherf et al.
# Submitted via: CDex 1.70beta2
#
DISCID=2e041004
DTITLE=Cafe Tacvba - Vale Callampa
DYEAR=2002
DGENRE=Rock En Español
TTITLE0=Dejate Caer
TTITLE1=Olor A Gas
TTITLE2=Amor Violento
TTITLE3=Tirate
EXTD=YEAR: 2002
EXTT0=
EXTT1=
EXTT2=
EXTT3=
PLAYORDER=
